<svg xmlns="http://www.w3.org/2000/svg" viewBox="0 0 95.25 18.39"><defs><style>.a{fill:#c0dcbc;}</style></defs><title>cloud4</title><path class="a" d="M138.7,33.85c-4.87-6-14-4.1-21.14-4.68-4.54-.37-8.39-2.1-12.14-4.07s-8-5-11.52-5.5a29.26,29.26,0,0,0-6.06-1.08A64.35,64.35,0,0,1,81,17.65,20.36,20.36,0,0,0,68.41,20.2c-2.41-.32-2.62,2.11-5.27,3.47-2.63,1.94-5.32,3.11-5,3.75-3.63,2.14-4.51,2.55-7,2.8a38.89,38.89,0,0,1-7.71.72c3.94,2,8.94,2.51,13.34,2.66,4.28.87,9.38.49,13.76.3,3.38,1.44,9.82,0,13.69.89,4.91,1.87,8.15-.49,13.69.93,5.43-1.45,8.59-.72,12.91.2A109.77,109.77,0,0,0,123.68,35C126.9,34.55,136.31,30.91,138.7,33.85Z" transform="translate(-43.45 -17.53)"/></svg>