<svg xmlns="http://www.w3.org/2000/svg" viewBox="0 0 77.15 14.9"><defs><style>.a{fill:#c0dcbc;}</style></defs><title>cloud5</title><path class="a" d="M52.5,32.53c3.94-4.85,11.34-3.32,17.13-3.79a25.21,25.21,0,0,0,9.83-3.29c3-1.6,6.46-4,9.33-4.46a23.71,23.71,0,0,1,4.91-.87,55.54,55.54,0,0,0,5.54-.7,16.4,16.4,0,0,1,10.19,2.06c2-.26,2.13,1.7,4.27,2.8,2.14,1.58,4.32,2.53,4.06,3,2.94,1.73,3.65,2.06,5.65,2.27a31.92,31.92,0,0,0,6.24.57c-3.19,1.62-7.24,2-10.8,2.16-3.47.71-7.6.4-11.14.25-2.75,1.16-8,0-11.1.71-4,1.52-6.6-.39-11.09.76-4.39-1.18-7-.58-10.45.16a90,90,0,0,1-10.4-.76C62.06,33.1,54.43,30.15,52.5,32.53Z" transform="translate(-52.5 -19.31)"/></svg>