<svg xmlns="http://www.w3.org/2000/svg" viewBox="0 0 156.52 31.76"><defs><style>.a{fill:#c0dcbc;}</style></defs><title>cloud3</title><path class="a" d="M12.81,34.8c2.27-3.92,6.09-4.81,10.26-6.07A24.92,24.92,0,0,1,35.46,28c4.07-.16,8.45-.58,12.44.46a44.45,44.45,0,0,0,13.87-3.16c4.2-2.13,8.67-4.58,12.7-6.12,2.1-1.07,4.23-2.11,6.4-3,1.61-.5,3.72-1.19,6.68-2.41a33.28,33.28,0,0,1,14-2.29c4.33-1.21,9.17.07,14.48,1a90,90,0,0,1,13.24,4.76c2.38,2.57,5,4.19,8.35,6.61,2.76,4.58,4.32,5.65,7.88,7.11,2.86,1.46,7.67,3.28,11.21,5.6a30.71,30.71,0,0,0,12.59,2,142.93,142.93,0,0,0-14.59,3.14c-4.27.73-9.69,2-15.08.19a137.8,137.8,0,0,0-15-.6,136.94,136.94,0,0,0-15,.09c-5.13.49-11,.18-15,.42-2.44-.08-5.51.86-7.51.15-2.51,0-5,0-7.52,0-4.86.5-8.43-.08-14.13-.4-4.83-.41-8.93-.27-14.11-1.11A63.63,63.63,0,0,0,37.36,38.2c-1.25-.19-7-3.35-12.68-4C19.85,33.26,15.26,32.63,12.81,34.8Z" transform="translate(-12.81 -10.97)"/></svg>