<svg xmlns="http://www.w3.org/2000/svg" width="31.723" height="33.317" viewBox="0 0 31.723 33.317">
  <path id="ithelpdesk" d="M15.321,3.877,16.79,14.168l-6.074,6.076A30.487,30.487,0,0,0,13.9,23.983l.722.7a30.732,30.732,0,0,0,2.4,2.033l.617.457L23.718,21.1,34.01,22.566v9.021l-.478.478c-3.581,3.581-10.228,2.75-16.693-1.487A32.734,32.734,0,0,1,12.219,26.9l-.624-.607A33.2,33.2,0,0,1,7.309,21.05C3.072,14.585,2.242,7.936,5.823,4.355L6.3,3.877Zm9.552,20.682-4.394,4.394c4.118,2.224,7.88,2.674,10.033,1.358l.232-.152V25.4ZM12.488,7.143H7.728c-1.5,2.108-1.1,6,1.2,10.265l4.394-4.394Zm8.139.389a8.137,8.137,0,0,1,8.126,8.164H25.532a4.907,4.907,0,0,0-4.9-4.9Zm0-6.531A14.678,14.678,0,0,1,35.293,15.695h-3.22A11.451,11.451,0,0,0,20.627,4.266Z" transform="translate(-3.57 -1)" fill="#312d2a" fill-rule="evenodd"/>
</svg>
