<svg xmlns="http://www.w3.org/2000/svg" viewBox="0 0 2409.66 505.71"><title>mask-only</title><path d="M1856.26,499.4c8.28,7.73,23.77,17.11,36.24,24.1-137,1-1054.86-2-1234,0,61.38-36,131.53-41.57,201.86-52.39l581.83-89.76c5.46-.83,95.17.35,99.06-3.62,12.48-12.88-82.82-32-94.43-40.9-56-42.87-135.16-24.8-204.44-11.75-264.2,49.81-535.6-4.49-798.93-58.63-38.54-7.9-235.16-42.08-254.5-76.31-14.15-25.1,223.9-59.37,240.1-66.87,36.93-17.07,77.05-16.59,116.86-18.6,107.44-5.41,217.1,40.55,323.4,13.84,89.32-22.44,163.18-97.35,255.25-100.41C1204.8,15.39,1275,68,1351.17,93.32c178.94,59.63,384-33.18,560.27,33.92,64.52,24.58,120.88,69.41,187.8,86.17,61.91,15.5,127,5.59,190-4.41,104.77-16.63,203-31.37,307.73-48l1,357c-229-49.85-502.38-46.76-733.18-41C1853.25,477.31,1847.79,491.49,1856.26,499.4Z" transform="translate(-188.34 -18)"/></svg>