<svg xmlns="http://www.w3.org/2000/svg" width="35.863" height="35.863" viewBox="0 0 35.863 35.863">
  <path id="myoracle-employee-portal" d="M36.863,1V36.863H1V1ZM33.6,4.26H4.26V33.6h4.89v-3.26a6.521,6.521,0,0,1,6.195-6.512l.326-.008h6.521A6.521,6.521,0,0,1,28.7,30.017l.008.326V33.6H33.6ZM22.192,27.082H15.671A3.263,3.263,0,0,0,12.419,30.1l-.008.243V33.6H25.452v-3.26a3.263,3.263,0,0,0-3.017-3.252ZM18.932,7.521a6.521,6.521,0,1,1-6.521,6.521A6.527,6.527,0,0,1,18.932,7.521Zm0,3.26a3.26,3.26,0,1,0,3.26,3.26A3.264,3.264,0,0,0,18.932,10.781Z" transform="translate(-1 -1)" fill="#312d2a" fill-rule="evenodd"/>
</svg>
