<svg xmlns="http://www.w3.org/2000/svg" width="36.766" height="36.766" viewBox="0 0 36.766 36.766">
  <path id="selfservice-apps" d="M28.175,18.584a9.591,9.591,0,1,1-9.591,9.591A9.59,9.59,0,0,1,28.175,18.584ZM13.79,1V4.2h9.589V1h3.2V4.2h9.589V18.584h-3.2V7.394H26.578v3.2h-3.2v-3.2H13.79v3.2h-3.2v-3.2H4.2V32.97H18.584v3.2H1V4.2h9.593V1ZM28.175,21.781a6.394,6.394,0,1,0,6.394,6.394A6.394,6.394,0,0,0,28.175,21.781Zm1.2,1.6v4.3l2.845,2.847-1.694,1.694-3.549-3.547V23.379Zm-18.782,0v3.2h-3.2v-3.2Zm4.8,0v3.2h-3.2v-3.2Zm-4.8-4.8v3.2h-3.2v-3.2Zm4.8,0v3.2h-3.2v-3.2Zm4.8,0v3.2h-3.2v-3.2Zm-9.591-4.8v3.2h-3.2v-3.2Zm4.8,0v3.2h-3.2v-3.2Zm4.8,0v3.2h-3.2v-3.2Zm4.8,0v3.2h-3.2v-3.2Zm4.8,0v3.2h-3.2v-3.2Z" transform="translate(-1 -1)" fill="#312d2a" fill-rule="evenodd"/>
</svg>
